<mxfile host="app.diagrams.net" modified="2023-11-28T07:20:15.379Z" agent="Mozilla/5.0 (X11; Linux x86_64; rv:120.0) Gecko/20100101 Firefox/120.0" etag="b4UPl-ckL-HQNNxDwKrD" version="22.1.4" type="device">
  <diagram name="Page-1" id="0xaqFuu1FLNw21isrRss">
    <mxGraphModel dx="1434" dy="1548" grid="1" gridSize="10" guides="1" tooltips="1" connect="1" arrows="1" fold="1" page="0" pageScale="1" pageWidth="850" pageHeight="1100" math="0" shadow="0">
      <root>
        <mxCell id="0" />
        <mxCell id="1" parent="0" />
        <mxCell id="2_6bNCuFECE9xtnycLQh-4" value="" style="rounded=0;whiteSpace=wrap;html=1;fillColor=#ffe6cc;strokeColor=#d79b00;" vertex="1" parent="1">
          <mxGeometry x="60" y="-265" width="640" height="365" as="geometry" />
        </mxCell>
        <mxCell id="2_6bNCuFECE9xtnycLQh-5" value="" style="rounded=0;whiteSpace=wrap;html=1;fillColor=#f8cecc;strokeColor=#b85450;" vertex="1" parent="1">
          <mxGeometry x="60" y="100" width="640" height="365" as="geometry" />
        </mxCell>
        <mxCell id="2_6bNCuFECE9xtnycLQh-1" value="" style="rounded=0;whiteSpace=wrap;html=1;fillColor=#d5e8d4;strokeColor=#82b366;" vertex="1" parent="1">
          <mxGeometry x="60" y="-630" width="640" height="365" as="geometry" />
        </mxCell>
        <mxCell id="Hib1V2TqkYddtpertsbL-1" value="" style="rounded=0;whiteSpace=wrap;html=1;" parent="1" vertex="1">
          <mxGeometry x="402" y="140" width="240" height="70" as="geometry" />
        </mxCell>
        <mxCell id="Hib1V2TqkYddtpertsbL-2" value="" style="whiteSpace=wrap;html=1;aspect=fixed;fillColor=#d5e8d4;strokeColor=#82b366;" parent="1" vertex="1">
          <mxGeometry x="410" y="151.25" width="15" height="15" as="geometry" />
        </mxCell>
        <mxCell id="Hib1V2TqkYddtpertsbL-6" value="" style="rounded=0;whiteSpace=wrap;html=1;" parent="1" vertex="1">
          <mxGeometry x="600" y="188.75" width="15" height="10" as="geometry" />
        </mxCell>
        <mxCell id="Hib1V2TqkYddtpertsbL-10" value="" style="rounded=0;whiteSpace=wrap;html=1;" parent="1" vertex="1">
          <mxGeometry x="620" y="188.75" width="15" height="10" as="geometry" />
        </mxCell>
        <mxCell id="Hib1V2TqkYddtpertsbL-11" value="" style="whiteSpace=wrap;html=1;aspect=fixed;fillColor=#d5e8d4;strokeColor=#82b366;" parent="1" vertex="1">
          <mxGeometry x="430" y="151.25" width="15" height="15" as="geometry" />
        </mxCell>
        <mxCell id="Hib1V2TqkYddtpertsbL-12" value="" style="whiteSpace=wrap;html=1;aspect=fixed;fillColor=#d5e8d4;strokeColor=#82b366;" parent="1" vertex="1">
          <mxGeometry x="450" y="151.25" width="15" height="15" as="geometry" />
        </mxCell>
        <mxCell id="Hib1V2TqkYddtpertsbL-13" value="" style="whiteSpace=wrap;html=1;aspect=fixed;fillColor=#f8cecc;strokeColor=#b85450;" parent="1" vertex="1">
          <mxGeometry x="530" y="151.25" width="15" height="15" as="geometry" />
        </mxCell>
        <mxCell id="Hib1V2TqkYddtpertsbL-15" value="" style="whiteSpace=wrap;html=1;aspect=fixed;fillColor=#f8cecc;strokeColor=#b85450;" parent="1" vertex="1">
          <mxGeometry x="510" y="151.25" width="15" height="15" as="geometry" />
        </mxCell>
        <mxCell id="Hib1V2TqkYddtpertsbL-16" value="" style="whiteSpace=wrap;html=1;aspect=fixed;fillColor=#d5e8d4;strokeColor=#82b366;" parent="1" vertex="1">
          <mxGeometry x="450" y="173.75" width="15" height="15" as="geometry" />
        </mxCell>
        <mxCell id="Hib1V2TqkYddtpertsbL-17" value="" style="whiteSpace=wrap;html=1;aspect=fixed;fillColor=#d5e8d4;strokeColor=#82b366;" parent="1" vertex="1">
          <mxGeometry x="410" y="173.75" width="15" height="15" as="geometry" />
        </mxCell>
        <mxCell id="Hib1V2TqkYddtpertsbL-18" value="" style="whiteSpace=wrap;html=1;aspect=fixed;fillColor=#d5e8d4;strokeColor=#82b366;" parent="1" vertex="1">
          <mxGeometry x="430" y="173.75" width="15" height="15" as="geometry" />
        </mxCell>
        <mxCell id="Hib1V2TqkYddtpertsbL-19" value="" style="whiteSpace=wrap;html=1;aspect=fixed;fillColor=#f8cecc;strokeColor=#b85450;" parent="1" vertex="1">
          <mxGeometry x="530" y="173.75" width="15" height="15" as="geometry" />
        </mxCell>
        <mxCell id="Hib1V2TqkYddtpertsbL-20" value="" style="whiteSpace=wrap;html=1;aspect=fixed;fillColor=#f8cecc;strokeColor=#b85450;" parent="1" vertex="1">
          <mxGeometry x="490" y="173.75" width="15" height="15" as="geometry" />
        </mxCell>
        <mxCell id="Hib1V2TqkYddtpertsbL-21" value="" style="whiteSpace=wrap;html=1;aspect=fixed;fillColor=#f8cecc;strokeColor=#b85450;" parent="1" vertex="1">
          <mxGeometry x="510" y="173.75" width="15" height="15" as="geometry" />
        </mxCell>
        <mxCell id="Hib1V2TqkYddtpertsbL-24" value="" style="whiteSpace=wrap;html=1;aspect=fixed;fillColor=#f8cecc;strokeColor=#b85450;" parent="1" vertex="1">
          <mxGeometry x="580" y="183.75" width="15" height="15" as="geometry" />
        </mxCell>
        <mxCell id="Hib1V2TqkYddtpertsbL-25" value="" style="whiteSpace=wrap;html=1;aspect=fixed;fillColor=#d5e8d4;strokeColor=#82b366;" parent="1" vertex="1">
          <mxGeometry x="560" y="183.75" width="15" height="15" as="geometry" />
        </mxCell>
        <mxCell id="Hib1V2TqkYddtpertsbL-45" style="edgeStyle=orthogonalEdgeStyle;rounded=0;orthogonalLoop=1;jettySize=auto;html=1;entryX=0.5;entryY=1;entryDx=0;entryDy=0;" parent="1" source="Hib1V2TqkYddtpertsbL-26" target="Hib1V2TqkYddtpertsbL-38" edge="1">
          <mxGeometry relative="1" as="geometry" />
        </mxCell>
        <mxCell id="Hib1V2TqkYddtpertsbL-26" value="" style="sketch=0;pointerEvents=1;shadow=0;dashed=0;html=1;strokeColor=none;fillColor=#434445;aspect=fixed;labelPosition=center;verticalLabelPosition=bottom;verticalAlign=top;align=center;outlineConnect=0;shape=mxgraph.vvd.laptop;" parent="1" vertex="1">
          <mxGeometry x="302.5" y="280" width="194.44" height="140" as="geometry" />
        </mxCell>
        <mxCell id="Hib1V2TqkYddtpertsbL-27" value="" style="sketch=0;pointerEvents=1;shadow=0;dashed=0;html=1;strokeColor=none;fillColor=#434445;aspect=fixed;labelPosition=center;verticalLabelPosition=bottom;verticalAlign=top;align=center;outlineConnect=0;shape=mxgraph.vvd.laptop;" parent="1" vertex="1">
          <mxGeometry x="88.06" y="280" width="194.44" height="140" as="geometry" />
        </mxCell>
        <mxCell id="Hib1V2TqkYddtpertsbL-28" value="" style="rounded=0;whiteSpace=wrap;html=1;" parent="1" vertex="1">
          <mxGeometry x="140" y="176.25" width="170" height="33.75" as="geometry" />
        </mxCell>
        <mxCell id="Hib1V2TqkYddtpertsbL-29" value="" style="whiteSpace=wrap;html=1;aspect=fixed;fillColor=#d5e8d4;strokeColor=#82b366;" parent="1" vertex="1">
          <mxGeometry x="147.5" y="185.63" width="15" height="15" as="geometry" />
        </mxCell>
        <mxCell id="Hib1V2TqkYddtpertsbL-30" value="" style="whiteSpace=wrap;html=1;aspect=fixed;fillColor=#d5e8d4;strokeColor=#82b366;" parent="1" vertex="1">
          <mxGeometry x="167.5" y="185.63" width="15" height="15" as="geometry" />
        </mxCell>
        <mxCell id="Hib1V2TqkYddtpertsbL-31" value="" style="whiteSpace=wrap;html=1;aspect=fixed;" parent="1" vertex="1">
          <mxGeometry x="187.5" y="185.63" width="15" height="15" as="geometry" />
        </mxCell>
        <mxCell id="Hib1V2TqkYddtpertsbL-32" value="" style="whiteSpace=wrap;html=1;aspect=fixed;" parent="1" vertex="1">
          <mxGeometry x="207.5" y="185.63" width="15" height="15" as="geometry" />
        </mxCell>
        <mxCell id="Hib1V2TqkYddtpertsbL-33" value="" style="whiteSpace=wrap;html=1;aspect=fixed;" parent="1" vertex="1">
          <mxGeometry x="227.5" y="185.63" width="15" height="15" as="geometry" />
        </mxCell>
        <mxCell id="Hib1V2TqkYddtpertsbL-34" value="" style="whiteSpace=wrap;html=1;aspect=fixed;" parent="1" vertex="1">
          <mxGeometry x="247.5" y="185.63" width="15" height="15" as="geometry" />
        </mxCell>
        <mxCell id="Hib1V2TqkYddtpertsbL-35" value="" style="whiteSpace=wrap;html=1;aspect=fixed;" parent="1" vertex="1">
          <mxGeometry x="267.5" y="185.63" width="15" height="15" as="geometry" />
        </mxCell>
        <mxCell id="Hib1V2TqkYddtpertsbL-53" style="edgeStyle=orthogonalEdgeStyle;rounded=0;orthogonalLoop=1;jettySize=auto;html=1;entryX=0.5;entryY=1;entryDx=0;entryDy=0;" parent="1" source="Hib1V2TqkYddtpertsbL-36" target="Hib1V2TqkYddtpertsbL-25" edge="1">
          <mxGeometry relative="1" as="geometry">
            <Array as="points">
              <mxPoint x="295" y="230" />
              <mxPoint x="568" y="230" />
            </Array>
          </mxGeometry>
        </mxCell>
        <mxCell id="Hib1V2TqkYddtpertsbL-36" value="" style="whiteSpace=wrap;html=1;aspect=fixed;fillColor=#d5e8d4;strokeColor=#82b366;" parent="1" vertex="1">
          <mxGeometry x="287.5" y="185.63" width="15" height="15" as="geometry" />
        </mxCell>
        <mxCell id="Hib1V2TqkYddtpertsbL-46" style="edgeStyle=orthogonalEdgeStyle;rounded=0;orthogonalLoop=1;jettySize=auto;html=1;entryX=0.5;entryY=1;entryDx=0;entryDy=0;" parent="1" source="Hib1V2TqkYddtpertsbL-38" target="Hib1V2TqkYddtpertsbL-24" edge="1">
          <mxGeometry relative="1" as="geometry" />
        </mxCell>
        <mxCell id="Hib1V2TqkYddtpertsbL-38" value="&lt;font style=&quot;font-size: 10px;&quot;&gt;USB NIC&lt;/font&gt;" style="rounded=0;whiteSpace=wrap;html=1;" parent="1" vertex="1">
          <mxGeometry x="540" y="330" width="25" height="40" as="geometry" />
        </mxCell>
        <mxCell id="Hib1V2TqkYddtpertsbL-51" style="edgeStyle=orthogonalEdgeStyle;rounded=0;orthogonalLoop=1;jettySize=auto;html=1;entryX=0.5;entryY=1;entryDx=0;entryDy=0;" parent="1" source="Hib1V2TqkYddtpertsbL-27" target="Hib1V2TqkYddtpertsbL-29" edge="1">
          <mxGeometry relative="1" as="geometry">
            <Array as="points">
              <mxPoint x="185" y="260" />
              <mxPoint x="155" y="260" />
            </Array>
          </mxGeometry>
        </mxCell>
        <mxCell id="Hib1V2TqkYddtpertsbL-52" style="edgeStyle=orthogonalEdgeStyle;rounded=0;orthogonalLoop=1;jettySize=auto;html=1;entryX=0.5;entryY=1;entryDx=0;entryDy=0;" parent="1" source="Hib1V2TqkYddtpertsbL-26" target="Hib1V2TqkYddtpertsbL-30" edge="1">
          <mxGeometry relative="1" as="geometry">
            <Array as="points">
              <mxPoint x="400" y="250" />
              <mxPoint x="175" y="250" />
            </Array>
          </mxGeometry>
        </mxCell>
        <mxCell id="Hib1V2TqkYddtpertsbL-54" value="" style="whiteSpace=wrap;html=1;aspect=fixed;" parent="1" vertex="1">
          <mxGeometry x="470" y="151.25" width="15" height="15" as="geometry" />
        </mxCell>
        <mxCell id="Hib1V2TqkYddtpertsbL-55" value="&lt;div style=&quot;font-size: 11px;&quot;&gt;&lt;font style=&quot;font-size: 11px;&quot;&gt;opnSense&lt;/font&gt;&lt;/div&gt;&lt;div style=&quot;font-size: 11px;&quot;&gt;&lt;font style=&quot;font-size: 11px;&quot;&gt;Nextcloud&lt;/font&gt;&lt;/div&gt;&lt;div style=&quot;font-size: 11px;&quot;&gt;&lt;font style=&quot;font-size: 11px;&quot;&gt;Mattermost&lt;/font&gt;&lt;/div&gt;&lt;div style=&quot;font-size: 11px;&quot;&gt;&lt;font style=&quot;font-size: 11px;&quot;&gt;Redmine&lt;br&gt;&lt;/font&gt;&lt;/div&gt;" style="rounded=0;whiteSpace=wrap;html=1;" parent="1" vertex="1">
          <mxGeometry x="125.28" y="300" width="120" height="60" as="geometry" />
        </mxCell>
        <mxCell id="Hib1V2TqkYddtpertsbL-56" value="&lt;div style=&quot;font-size: 11px;&quot;&gt;&lt;font style=&quot;font-size: 11px;&quot;&gt;Sec O Manager&lt;/font&gt;&lt;/div&gt;&lt;div style=&quot;font-size: 11px;&quot;&gt;&lt;font style=&quot;font-size: 11px;&quot;&gt;Sec O Search&lt;/font&gt;&lt;/div&gt;&lt;div style=&quot;font-size: 11px;&quot;&gt;&lt;font style=&quot;font-size: 11px;&quot;&gt;Sec O Search&lt;/font&gt;&lt;/div&gt;&lt;div style=&quot;font-size: 11px;&quot;&gt;&lt;font style=&quot;font-size: 11px;&quot;&gt;Sec O Forward&lt;font style=&quot;font-size: 11px;&quot;&gt;&lt;br&gt;&lt;/font&gt;&lt;/font&gt;&lt;/div&gt;" style="rounded=0;whiteSpace=wrap;html=1;" parent="1" vertex="1">
          <mxGeometry x="339.72" y="300" width="120" height="60" as="geometry" />
        </mxCell>
        <mxCell id="Hib1V2TqkYddtpertsbL-59" value="Cisco Switch" style="text;html=1;strokeColor=none;fillColor=none;align=center;verticalAlign=middle;whiteSpace=wrap;rounded=0;" parent="1" vertex="1">
          <mxGeometry x="473" y="120" width="98" height="30" as="geometry" />
        </mxCell>
        <mxCell id="Hib1V2TqkYddtpertsbL-60" value="Dummy Switch" style="text;html=1;strokeColor=none;fillColor=none;align=center;verticalAlign=middle;whiteSpace=wrap;rounded=0;" parent="1" vertex="1">
          <mxGeometry x="176" y="155.63" width="98" height="30" as="geometry" />
        </mxCell>
        <mxCell id="Hib1V2TqkYddtpertsbL-61" value="Laptop 1" style="text;html=1;strokeColor=none;fillColor=none;align=center;verticalAlign=middle;whiteSpace=wrap;rounded=0;" parent="1" vertex="1">
          <mxGeometry x="136.28" y="420" width="98" height="30" as="geometry" />
        </mxCell>
        <mxCell id="Hib1V2TqkYddtpertsbL-62" value="Laptop 2" style="text;html=1;strokeColor=none;fillColor=none;align=center;verticalAlign=middle;whiteSpace=wrap;rounded=0;" parent="1" vertex="1">
          <mxGeometry x="350.72" y="420" width="98" height="30" as="geometry" />
        </mxCell>
        <mxCell id="Hib1V2TqkYddtpertsbL-63" value="&lt;font style=&quot;font-size: 10px;&quot;&gt;Analysts&lt;/font&gt;" style="text;html=1;strokeColor=none;fillColor=none;align=center;verticalAlign=middle;whiteSpace=wrap;rounded=0;" parent="1" vertex="1">
          <mxGeometry x="388.5" y="183.75" width="98" height="30" as="geometry" />
        </mxCell>
        <mxCell id="Hib1V2TqkYddtpertsbL-64" value="&lt;font style=&quot;font-size: 10px;&quot;&gt;Ingestion&lt;/font&gt;" style="text;html=1;align=center;verticalAlign=middle;whiteSpace=wrap;rounded=0;" parent="1" vertex="1">
          <mxGeometry x="468.5" y="183.75" width="98" height="30" as="geometry" />
        </mxCell>
        <mxCell id="Hib1V2TqkYddtpertsbL-65" value="A" style="text;html=1;strokeColor=none;fillColor=none;align=center;verticalAlign=middle;whiteSpace=wrap;rounded=0;" parent="1" vertex="1">
          <mxGeometry x="559.25" y="165" width="16.5" height="20" as="geometry" />
        </mxCell>
        <mxCell id="Hib1V2TqkYddtpertsbL-66" value="I" style="text;html=1;strokeColor=none;fillColor=none;align=center;verticalAlign=middle;whiteSpace=wrap;rounded=0;" parent="1" vertex="1">
          <mxGeometry x="578.3399999999999" y="165" width="20.44" height="20" as="geometry" />
        </mxCell>
        <mxCell id="Hib1V2TqkYddtpertsbL-68" value="" style="rounded=0;whiteSpace=wrap;html=1;" parent="1" vertex="1">
          <mxGeometry x="402" y="-220" width="240" height="70" as="geometry" />
        </mxCell>
        <mxCell id="Hib1V2TqkYddtpertsbL-69" value="" style="whiteSpace=wrap;html=1;aspect=fixed;fillColor=#d5e8d4;strokeColor=#82b366;" parent="1" vertex="1">
          <mxGeometry x="410" y="-208.75" width="15" height="15" as="geometry" />
        </mxCell>
        <mxCell id="Hib1V2TqkYddtpertsbL-70" value="" style="rounded=0;whiteSpace=wrap;html=1;" parent="1" vertex="1">
          <mxGeometry x="600" y="-171.25" width="15" height="10" as="geometry" />
        </mxCell>
        <mxCell id="Hib1V2TqkYddtpertsbL-71" value="" style="rounded=0;whiteSpace=wrap;html=1;" parent="1" vertex="1">
          <mxGeometry x="620" y="-171.25" width="15" height="10" as="geometry" />
        </mxCell>
        <mxCell id="Hib1V2TqkYddtpertsbL-72" value="" style="whiteSpace=wrap;html=1;aspect=fixed;fillColor=#d5e8d4;strokeColor=#82b366;" parent="1" vertex="1">
          <mxGeometry x="430" y="-208.75" width="15" height="15" as="geometry" />
        </mxCell>
        <mxCell id="Hib1V2TqkYddtpertsbL-73" value="" style="whiteSpace=wrap;html=1;aspect=fixed;fillColor=#d5e8d4;strokeColor=#82b366;" parent="1" vertex="1">
          <mxGeometry x="450" y="-208.75" width="15" height="15" as="geometry" />
        </mxCell>
        <mxCell id="Hib1V2TqkYddtpertsbL-74" value="" style="whiteSpace=wrap;html=1;aspect=fixed;fillColor=#f8cecc;strokeColor=#b85450;" parent="1" vertex="1">
          <mxGeometry x="530" y="-208.75" width="15" height="15" as="geometry" />
        </mxCell>
        <mxCell id="Hib1V2TqkYddtpertsbL-75" value="" style="whiteSpace=wrap;html=1;aspect=fixed;fillColor=#f8cecc;strokeColor=#b85450;" parent="1" vertex="1">
          <mxGeometry x="510" y="-208.75" width="15" height="15" as="geometry" />
        </mxCell>
        <mxCell id="Hib1V2TqkYddtpertsbL-76" value="" style="whiteSpace=wrap;html=1;aspect=fixed;fillColor=#d5e8d4;strokeColor=#82b366;" parent="1" vertex="1">
          <mxGeometry x="450" y="-186.25" width="15" height="15" as="geometry" />
        </mxCell>
        <mxCell id="Hib1V2TqkYddtpertsbL-77" value="" style="whiteSpace=wrap;html=1;aspect=fixed;fillColor=#d5e8d4;strokeColor=#82b366;" parent="1" vertex="1">
          <mxGeometry x="410" y="-186.25" width="15" height="15" as="geometry" />
        </mxCell>
        <mxCell id="Hib1V2TqkYddtpertsbL-78" value="" style="whiteSpace=wrap;html=1;aspect=fixed;fillColor=#d5e8d4;strokeColor=#82b366;" parent="1" vertex="1">
          <mxGeometry x="430" y="-186.25" width="15" height="15" as="geometry" />
        </mxCell>
        <mxCell id="Hib1V2TqkYddtpertsbL-79" value="" style="whiteSpace=wrap;html=1;aspect=fixed;fillColor=#f8cecc;strokeColor=#b85450;" parent="1" vertex="1">
          <mxGeometry x="530" y="-186.25" width="15" height="15" as="geometry" />
        </mxCell>
        <mxCell id="Hib1V2TqkYddtpertsbL-80" value="" style="whiteSpace=wrap;html=1;aspect=fixed;fillColor=#f8cecc;strokeColor=#b85450;" parent="1" vertex="1">
          <mxGeometry x="490" y="-186.25" width="15" height="15" as="geometry" />
        </mxCell>
        <mxCell id="Hib1V2TqkYddtpertsbL-81" value="" style="whiteSpace=wrap;html=1;aspect=fixed;fillColor=#f8cecc;strokeColor=#b85450;" parent="1" vertex="1">
          <mxGeometry x="510" y="-186.25" width="15" height="15" as="geometry" />
        </mxCell>
        <mxCell id="Hib1V2TqkYddtpertsbL-82" value="" style="whiteSpace=wrap;html=1;aspect=fixed;fillColor=#f8cecc;strokeColor=#b85450;" parent="1" vertex="1">
          <mxGeometry x="580" y="-176.25" width="15" height="15" as="geometry" />
        </mxCell>
        <mxCell id="Hib1V2TqkYddtpertsbL-83" value="" style="whiteSpace=wrap;html=1;aspect=fixed;fillColor=#d5e8d4;strokeColor=#82b366;" parent="1" vertex="1">
          <mxGeometry x="560" y="-176.25" width="15" height="15" as="geometry" />
        </mxCell>
        <mxCell id="Hib1V2TqkYddtpertsbL-84" value="" style="whiteSpace=wrap;html=1;aspect=fixed;" parent="1" vertex="1">
          <mxGeometry x="470" y="-208.75" width="15" height="15" as="geometry" />
        </mxCell>
        <mxCell id="Hib1V2TqkYddtpertsbL-85" value="Cisco Switch" style="text;html=1;strokeColor=none;fillColor=none;align=center;verticalAlign=middle;whiteSpace=wrap;rounded=0;" parent="1" vertex="1">
          <mxGeometry x="473" y="-240" width="98" height="30" as="geometry" />
        </mxCell>
        <mxCell id="Hib1V2TqkYddtpertsbL-86" value="&lt;font style=&quot;font-size: 10px;&quot;&gt;Analysts&lt;/font&gt;" style="text;html=1;strokeColor=none;fillColor=none;align=center;verticalAlign=middle;whiteSpace=wrap;rounded=0;" parent="1" vertex="1">
          <mxGeometry x="411.75" y="-176.25" width="51.5" height="30" as="geometry" />
        </mxCell>
        <mxCell id="Hib1V2TqkYddtpertsbL-87" value="&lt;font style=&quot;font-size: 10px;&quot;&gt;Ingestion&lt;/font&gt;" style="text;html=1;strokeColor=none;fillColor=none;align=center;verticalAlign=middle;whiteSpace=wrap;rounded=0;" parent="1" vertex="1">
          <mxGeometry x="491.75" y="-176.25" width="51.5" height="30" as="geometry" />
        </mxCell>
        <mxCell id="Hib1V2TqkYddtpertsbL-88" value="A" style="text;html=1;strokeColor=none;fillColor=none;align=center;verticalAlign=middle;whiteSpace=wrap;rounded=0;" parent="1" vertex="1">
          <mxGeometry x="556.75" y="-195" width="21.5" height="20" as="geometry" />
        </mxCell>
        <mxCell id="Hib1V2TqkYddtpertsbL-89" value="I" style="text;html=1;strokeColor=none;fillColor=none;align=center;verticalAlign=middle;whiteSpace=wrap;rounded=0;" parent="1" vertex="1">
          <mxGeometry x="579.25" y="-195" width="16.5" height="20" as="geometry" />
        </mxCell>
        <mxCell id="Hib1V2TqkYddtpertsbL-90" value="" style="rounded=0;whiteSpace=wrap;html=1;" parent="1" vertex="1">
          <mxGeometry x="402" y="-580" width="240" height="70" as="geometry" />
        </mxCell>
        <mxCell id="Hib1V2TqkYddtpertsbL-91" value="" style="whiteSpace=wrap;html=1;aspect=fixed;fillColor=#d5e8d4;strokeColor=#82b366;" parent="1" vertex="1">
          <mxGeometry x="410" y="-568.75" width="15" height="15" as="geometry" />
        </mxCell>
        <mxCell id="Hib1V2TqkYddtpertsbL-92" value="" style="rounded=0;whiteSpace=wrap;html=1;" parent="1" vertex="1">
          <mxGeometry x="600" y="-531.25" width="15" height="10" as="geometry" />
        </mxCell>
        <mxCell id="Hib1V2TqkYddtpertsbL-93" value="" style="rounded=0;whiteSpace=wrap;html=1;" parent="1" vertex="1">
          <mxGeometry x="620" y="-531.25" width="15" height="10" as="geometry" />
        </mxCell>
        <mxCell id="Hib1V2TqkYddtpertsbL-94" value="" style="whiteSpace=wrap;html=1;aspect=fixed;fillColor=#d5e8d4;strokeColor=#82b366;" parent="1" vertex="1">
          <mxGeometry x="430" y="-568.75" width="15" height="15" as="geometry" />
        </mxCell>
        <mxCell id="Hib1V2TqkYddtpertsbL-95" value="" style="whiteSpace=wrap;html=1;aspect=fixed;fillColor=#d5e8d4;strokeColor=#82b366;" parent="1" vertex="1">
          <mxGeometry x="450" y="-568.75" width="15" height="15" as="geometry" />
        </mxCell>
        <mxCell id="Hib1V2TqkYddtpertsbL-96" value="" style="whiteSpace=wrap;html=1;aspect=fixed;" parent="1" vertex="1">
          <mxGeometry x="530" y="-568.75" width="15" height="15" as="geometry" />
        </mxCell>
        <mxCell id="Hib1V2TqkYddtpertsbL-97" value="" style="whiteSpace=wrap;html=1;aspect=fixed;" parent="1" vertex="1">
          <mxGeometry x="510" y="-568.75" width="15" height="15" as="geometry" />
        </mxCell>
        <mxCell id="Hib1V2TqkYddtpertsbL-98" value="" style="whiteSpace=wrap;html=1;aspect=fixed;fillColor=#d5e8d4;strokeColor=#82b366;" parent="1" vertex="1">
          <mxGeometry x="450" y="-546.25" width="15" height="15" as="geometry" />
        </mxCell>
        <mxCell id="Hib1V2TqkYddtpertsbL-99" value="" style="whiteSpace=wrap;html=1;aspect=fixed;fillColor=#d5e8d4;strokeColor=#82b366;" parent="1" vertex="1">
          <mxGeometry x="410" y="-546.25" width="15" height="15" as="geometry" />
        </mxCell>
        <mxCell id="Hib1V2TqkYddtpertsbL-100" value="" style="whiteSpace=wrap;html=1;aspect=fixed;fillColor=#d5e8d4;strokeColor=#82b366;" parent="1" vertex="1">
          <mxGeometry x="430" y="-546.25" width="15" height="15" as="geometry" />
        </mxCell>
        <mxCell id="Hib1V2TqkYddtpertsbL-101" value="" style="whiteSpace=wrap;html=1;aspect=fixed;" parent="1" vertex="1">
          <mxGeometry x="530" y="-546.25" width="15" height="15" as="geometry" />
        </mxCell>
        <mxCell id="Hib1V2TqkYddtpertsbL-102" value="" style="whiteSpace=wrap;html=1;aspect=fixed;" parent="1" vertex="1">
          <mxGeometry x="490" y="-546.25" width="15" height="15" as="geometry" />
        </mxCell>
        <mxCell id="Hib1V2TqkYddtpertsbL-103" value="" style="whiteSpace=wrap;html=1;aspect=fixed;" parent="1" vertex="1">
          <mxGeometry x="510" y="-546.25" width="15" height="15" as="geometry" />
        </mxCell>
        <mxCell id="Hib1V2TqkYddtpertsbL-104" value="" style="whiteSpace=wrap;html=1;aspect=fixed;" parent="1" vertex="1">
          <mxGeometry x="580" y="-536.25" width="15" height="15" as="geometry" />
        </mxCell>
        <mxCell id="Hib1V2TqkYddtpertsbL-105" value="" style="whiteSpace=wrap;html=1;aspect=fixed;fillColor=#d5e8d4;strokeColor=#82b366;" parent="1" vertex="1">
          <mxGeometry x="560" y="-536.25" width="15" height="15" as="geometry" />
        </mxCell>
        <mxCell id="Hib1V2TqkYddtpertsbL-106" value="" style="whiteSpace=wrap;html=1;aspect=fixed;" parent="1" vertex="1">
          <mxGeometry x="470" y="-568.75" width="15" height="15" as="geometry" />
        </mxCell>
        <mxCell id="Hib1V2TqkYddtpertsbL-107" value="Cisco Switch" style="text;html=1;strokeColor=none;fillColor=none;align=center;verticalAlign=middle;whiteSpace=wrap;rounded=0;" parent="1" vertex="1">
          <mxGeometry x="473" y="-600" width="98" height="30" as="geometry" />
        </mxCell>
        <mxCell id="Hib1V2TqkYddtpertsbL-108" value="&lt;font style=&quot;font-size: 10px;&quot;&gt;Analysts&lt;/font&gt;" style="text;html=1;strokeColor=none;fillColor=none;align=center;verticalAlign=middle;whiteSpace=wrap;rounded=0;" parent="1" vertex="1">
          <mxGeometry x="411.75" y="-536.25" width="51.5" height="30" as="geometry" />
        </mxCell>
        <mxCell id="Hib1V2TqkYddtpertsbL-109" value="&lt;font style=&quot;font-size: 10px;&quot;&gt;Ingestion&lt;/font&gt;" style="text;html=1;strokeColor=none;fillColor=none;align=center;verticalAlign=middle;whiteSpace=wrap;rounded=0;" parent="1" vertex="1">
          <mxGeometry x="491.75" y="-536.25" width="51.5" height="30" as="geometry" />
        </mxCell>
        <mxCell id="Hib1V2TqkYddtpertsbL-110" value="A" style="text;html=1;strokeColor=none;fillColor=none;align=center;verticalAlign=middle;whiteSpace=wrap;rounded=0;" parent="1" vertex="1">
          <mxGeometry x="518.5" y="-560" width="98" height="30" as="geometry" />
        </mxCell>
        <mxCell id="Hib1V2TqkYddtpertsbL-111" value="I" style="text;html=1;strokeColor=none;fillColor=none;align=center;verticalAlign=middle;whiteSpace=wrap;rounded=0;" parent="1" vertex="1">
          <mxGeometry x="538.5" y="-560" width="98" height="30" as="geometry" />
        </mxCell>
        <mxCell id="Hib1V2TqkYddtpertsbL-112" value="" style="rounded=0;whiteSpace=wrap;html=1;" parent="1" vertex="1">
          <mxGeometry x="120" y="-480" width="520" height="160" as="geometry" />
        </mxCell>
        <mxCell id="Hib1V2TqkYddtpertsbL-113" value="" style="rounded=0;whiteSpace=wrap;html=1;" parent="1" vertex="1">
          <mxGeometry x="120" y="-120" width="520" height="80" as="geometry" />
        </mxCell>
        <mxCell id="Hib1V2TqkYddtpertsbL-114" value="R630" style="text;html=1;strokeColor=none;fillColor=none;align=center;verticalAlign=middle;whiteSpace=wrap;rounded=0;" parent="1" vertex="1">
          <mxGeometry x="331" y="-40" width="98" height="30" as="geometry" />
        </mxCell>
        <mxCell id="Hib1V2TqkYddtpertsbL-115" value="R830" style="text;html=1;strokeColor=none;fillColor=none;align=center;verticalAlign=middle;whiteSpace=wrap;rounded=0;" parent="1" vertex="1">
          <mxGeometry x="331" y="-320" width="98" height="30" as="geometry" />
        </mxCell>
        <mxCell id="Hib1V2TqkYddtpertsbL-116" value="" style="whiteSpace=wrap;html=1;aspect=fixed;fillColor=#f8cecc;strokeColor=#b85450;" parent="1" vertex="1">
          <mxGeometry x="533" y="-460" width="15" height="15" as="geometry" />
        </mxCell>
        <mxCell id="Hib1V2TqkYddtpertsbL-117" value="" style="whiteSpace=wrap;html=1;aspect=fixed;fillColor=#f8cecc;strokeColor=#b85450;" parent="1" vertex="1">
          <mxGeometry x="556.94" y="-460" width="15" height="15" as="geometry" />
        </mxCell>
        <mxCell id="Hib1V2TqkYddtpertsbL-118" value="" style="whiteSpace=wrap;html=1;aspect=fixed;fillColor=#f8cecc;strokeColor=#b85450;" parent="1" vertex="1">
          <mxGeometry x="605" y="-460" width="15" height="15" as="geometry" />
        </mxCell>
        <mxCell id="Hib1V2TqkYddtpertsbL-119" value="" style="whiteSpace=wrap;html=1;aspect=fixed;fillColor=#f8cecc;strokeColor=#b85450;" parent="1" vertex="1">
          <mxGeometry x="581.06" y="-460" width="15" height="15" as="geometry" />
        </mxCell>
        <mxCell id="Hib1V2TqkYddtpertsbL-120" value="" style="whiteSpace=wrap;html=1;aspect=fixed;fillColor=#f8cecc;strokeColor=#b85450;" parent="1" vertex="1">
          <mxGeometry x="212" y="-350" width="15" height="15" as="geometry" />
        </mxCell>
        <mxCell id="Hib1V2TqkYddtpertsbL-121" value="" style="whiteSpace=wrap;html=1;aspect=fixed;" parent="1" vertex="1">
          <mxGeometry x="188.05999999999995" y="-350" width="15" height="15" as="geometry" />
        </mxCell>
        <mxCell id="Hib1V2TqkYddtpertsbL-122" value="" style="whiteSpace=wrap;html=1;aspect=fixed;" parent="1" vertex="1">
          <mxGeometry x="163.94000000000005" y="-350" width="15" height="15" as="geometry" />
        </mxCell>
        <mxCell id="Hib1V2TqkYddtpertsbL-136" style="edgeStyle=orthogonalEdgeStyle;rounded=0;orthogonalLoop=1;jettySize=auto;html=1;" parent="1" source="Hib1V2TqkYddtpertsbL-123" target="Hib1V2TqkYddtpertsbL-105" edge="1">
          <mxGeometry relative="1" as="geometry">
            <Array as="points">
              <mxPoint x="148" y="-500" />
              <mxPoint x="568" y="-500" />
            </Array>
          </mxGeometry>
        </mxCell>
        <mxCell id="Hib1V2TqkYddtpertsbL-123" value="" style="whiteSpace=wrap;html=1;aspect=fixed;fillColor=#d5e8d4;strokeColor=#82b366;" parent="1" vertex="1">
          <mxGeometry x="140" y="-350" width="15" height="15" as="geometry" />
        </mxCell>
        <mxCell id="Hib1V2TqkYddtpertsbL-134" style="edgeStyle=orthogonalEdgeStyle;rounded=0;orthogonalLoop=1;jettySize=auto;html=1;entryX=0.5;entryY=1;entryDx=0;entryDy=0;" parent="1" source="Hib1V2TqkYddtpertsbL-124" target="Hib1V2TqkYddtpertsbL-83" edge="1">
          <mxGeometry relative="1" as="geometry">
            <Array as="points">
              <mxPoint x="148" y="-140" />
              <mxPoint x="568" y="-140" />
            </Array>
          </mxGeometry>
        </mxCell>
        <mxCell id="Hib1V2TqkYddtpertsbL-124" value="" style="whiteSpace=wrap;html=1;aspect=fixed;fillColor=#d5e8d4;strokeColor=#82b366;" parent="1" vertex="1">
          <mxGeometry x="140" y="-70" width="15" height="15" as="geometry" />
        </mxCell>
        <mxCell id="Hib1V2TqkYddtpertsbL-135" style="edgeStyle=orthogonalEdgeStyle;rounded=0;orthogonalLoop=1;jettySize=auto;html=1;entryX=0.5;entryY=1;entryDx=0;entryDy=0;" parent="1" source="Hib1V2TqkYddtpertsbL-125" target="Hib1V2TqkYddtpertsbL-82" edge="1">
          <mxGeometry relative="1" as="geometry">
            <Array as="points">
              <mxPoint x="171" y="-130" />
              <mxPoint x="588" y="-130" />
            </Array>
          </mxGeometry>
        </mxCell>
        <mxCell id="Hib1V2TqkYddtpertsbL-125" value="" style="whiteSpace=wrap;html=1;aspect=fixed;fillColor=#f8cecc;strokeColor=#b85450;" parent="1" vertex="1">
          <mxGeometry x="163.94000000000005" y="-70" width="15" height="15" as="geometry" />
        </mxCell>
        <mxCell id="Hib1V2TqkYddtpertsbL-126" value="" style="whiteSpace=wrap;html=1;aspect=fixed;" parent="1" vertex="1">
          <mxGeometry x="188.05999999999995" y="-70" width="15" height="15" as="geometry" />
        </mxCell>
        <mxCell id="Hib1V2TqkYddtpertsbL-127" value="" style="whiteSpace=wrap;html=1;aspect=fixed;" parent="1" vertex="1">
          <mxGeometry x="212" y="-70" width="15" height="15" as="geometry" />
        </mxCell>
        <mxCell id="Hib1V2TqkYddtpertsbL-129" value="&lt;div style=&quot;font-size: 11px;&quot;&gt;&lt;font style=&quot;font-size: 11px;&quot;&gt;opnSense&lt;/font&gt;&lt;/div&gt;&lt;div style=&quot;font-size: 11px;&quot;&gt;&lt;font style=&quot;font-size: 11px;&quot;&gt;Nextcloud&lt;/font&gt;&lt;/div&gt;&lt;div style=&quot;font-size: 11px;&quot;&gt;&lt;font style=&quot;font-size: 11px;&quot;&gt;Mattermost&lt;/font&gt;&lt;/div&gt;&lt;div style=&quot;font-size: 11px;&quot;&gt;&lt;font style=&quot;font-size: 11px;&quot;&gt;Redmine&lt;br&gt;&lt;/font&gt;&lt;/div&gt;" style="rounded=0;whiteSpace=wrap;html=1;" parent="1" vertex="1">
          <mxGeometry x="250" y="-110" width="120" height="60" as="geometry" />
        </mxCell>
        <mxCell id="Hib1V2TqkYddtpertsbL-130" value="&lt;div style=&quot;font-size: 11px;&quot;&gt;&lt;font style=&quot;font-size: 11px;&quot;&gt;Sec O Manager&lt;/font&gt;&lt;/div&gt;&lt;div style=&quot;font-size: 11px;&quot;&gt;&lt;font style=&quot;font-size: 11px;&quot;&gt;Sec O Search&lt;/font&gt;&lt;/div&gt;&lt;div style=&quot;font-size: 11px;&quot;&gt;&lt;font style=&quot;font-size: 11px;&quot;&gt;Sec O Search&lt;/font&gt;&lt;/div&gt;&lt;div style=&quot;font-size: 11px;&quot;&gt;&lt;font style=&quot;font-size: 11px;&quot;&gt;Sec O Forward&lt;font style=&quot;font-size: 11px;&quot;&gt;&lt;br&gt;&lt;/font&gt;&lt;/font&gt;&lt;/div&gt;" style="rounded=0;whiteSpace=wrap;html=1;" parent="1" vertex="1">
          <mxGeometry x="390" y="-110" width="120" height="60" as="geometry" />
        </mxCell>
        <mxCell id="Hib1V2TqkYddtpertsbL-131" value="&lt;div style=&quot;font-size: 11px;&quot;&gt;&lt;font style=&quot;font-size: 11px;&quot;&gt;Sec O Manager&lt;/font&gt;&lt;/div&gt;&lt;div style=&quot;font-size: 11px;&quot;&gt;&lt;font style=&quot;font-size: 11px;&quot;&gt;Sec O Search&lt;/font&gt;&lt;/div&gt;&lt;div style=&quot;font-size: 11px;&quot;&gt;&lt;font style=&quot;font-size: 11px;&quot;&gt;Sec O Search&lt;/font&gt;&lt;/div&gt;&lt;div style=&quot;font-size: 11px;&quot;&gt;&lt;font style=&quot;font-size: 11px;&quot;&gt;Sec O Forward x5&lt;font style=&quot;font-size: 11px;&quot;&gt;&lt;br&gt;&lt;/font&gt;&lt;/font&gt;&lt;/div&gt;" style="rounded=0;whiteSpace=wrap;html=1;" parent="1" vertex="1">
          <mxGeometry x="390" y="-430" width="120" height="60" as="geometry" />
        </mxCell>
        <mxCell id="Hib1V2TqkYddtpertsbL-132" value="&lt;div style=&quot;font-size: 11px;&quot;&gt;&lt;font style=&quot;font-size: 11px;&quot;&gt;opnSense&lt;/font&gt;&lt;/div&gt;&lt;div style=&quot;font-size: 11px;&quot;&gt;&lt;font style=&quot;font-size: 11px;&quot;&gt;Nextcloud&lt;/font&gt;&lt;/div&gt;&lt;div style=&quot;font-size: 11px;&quot;&gt;&lt;font style=&quot;font-size: 11px;&quot;&gt;Mattermost&lt;/font&gt;&lt;/div&gt;&lt;div style=&quot;font-size: 11px;&quot;&gt;&lt;font style=&quot;font-size: 11px;&quot;&gt;Redmine&lt;br&gt;&lt;/font&gt;&lt;/div&gt;" style="rounded=0;whiteSpace=wrap;html=1;" parent="1" vertex="1">
          <mxGeometry x="250" y="-430" width="120" height="60" as="geometry" />
        </mxCell>
      </root>
    </mxGraphModel>
  </diagram>
</mxfile>
